<?xml version="1.0" standalone="no"?>
<!DOCTYPE svg PUBLIC "-//W3C//DTD SVG 20010904//EN"
 "http://www.w3.org/TR/2001/REC-SVG-20010904/DTD/svg10.dtd">
<svg version="1.0" xmlns="http://www.w3.org/2000/svg"
 width="600.000000pt" height="388.000000pt" viewBox="0 0 600.000000 388.000000"
 preserveAspectRatio="xMidYMid meet">
<metadata>
Created by potrace 1.16, written by Peter Selinger 2001-2019
</metadata>
<g transform="translate(0.000000,388.000000) scale(0.100000,-0.100000)"
fill="#000000" stroke="none">
<path d="M3046 3180 c-257 -41 -525 -171 -793 -387 -51 -40 -93 -76 -93 -78 0
-2 42 22 93 54 202 127 406 219 582 263 118 29 326 31 425 4 93 -25 174 -72
225 -128 46 -51 85 -138 85 -189 0 -50 17 -24 30 47 38 200 -36 340 -208 395
-77 24 -250 34 -346 19z"/>
<path d="M2971 2949 c-66 -11 -77 -19 -29 -19 102 0 215 -75 259 -172 21 -47
24 -67 23 -168 -1 -143 -28 -241 -113 -415 -203 -414 -609 -818 -1026 -1020
-160 -78 -251 -105 -380 -112 -192 -11 -304 53 -356 202 -23 65 -16 224 13
323 14 45 23 82 21 82 -8 0 -80 -164 -107 -241 -39 -116 -56 -210 -56 -318 0
-198 68 -310 229 -373 79 -31 250 -31 371 1 277 73 538 224 872 504 l45 37 39
-16 c47 -20 126 -13 185 15 21 11 39 16 39 12 0 -8 -77 -452 -86 -494 l-6 -27
194 0 194 0 68 393 c38 215 71 395 75 398 3 4 172 -170 374 -386 238 -254 381
-400 405 -411 22 -10 58 -16 95 -16 115 2 214 77 251 190 14 43 216 1154 216
1188 0 12 -32 14 -189 14 -188 0 -189 0 -194 -22 -3 -13 -36 -192 -72 -398
-37 -206 -69 -377 -71 -380 -3 -2 -8 0 -12 6 -4 6 -169 183 -367 393 -354 378
-402 421 -460 421 -14 0 -25 3 -25 6 0 3 13 43 29 89 102 287 73 538 -72 645
-89 65 -242 93 -376 69z"/>
<path d="M1847 2636 c-74 -27 -138 -91 -176 -177 -12 -27 -59 -269 -120 -620
-56 -317 -101 -579 -101 -582 0 -4 85 -7 190 -7 188 0 190 0 195 23 7 27 135
759 135 770 0 4 4 7 9 7 4 0 120 -119 256 -265 200 -213 251 -262 265 -255 31
17 281 282 278 295 -3 12 -633 689 -709 762 -63 60 -142 77 -222 49z"/>
<path d="M2935 2608 c-14 -62 -134 -752 -131 -755 6 -7 113 142 172 238 111
182 194 402 194 514 l0 25 -115 0 c-111 0 -115 -1 -120 -22z"/>
</g>
</svg>
